HIERARCHY
ROOT Hips
{
 OFFSET 0.000000 0.000000 0.000000
 CHANNELS 6 Xposition Yposition Zposition Yrotation Xrotation Zrotation
 JOINT Chest
 {
  OFFSET 0.000000 9.585900 0.002600
  CHANNELS 3 Yrotation Xrotation Zrotation
  JOINT Chest2
  {
   OFFSET 0.000000 9.601200 -0.005300
   CHANNELS 3 Yrotation Xrotation Zrotation
   JOINT Chest3
   {
    OFFSET 0.000000 9.561800 0.000000
    CHANNELS 3 Yrotation Xrotation Zrotation
    JOINT Chest4
    {
     OFFSET 0.000000 9.552100 0.000000
     CHANNELS 3 Yrotation Xrotation Zrotation
     JOINT Neck
     {
      OFFSET 0.000000 14.453000 0.000000
      CHANNELS 3 Yrotation Xrotation Zrotation
      JOINT Head
      {
       OFFSET 0.000000 8.936500 -0.011300
       CHANNELS 3 Yrotation Xrotation Zrotation
       End Site
       {
        OFFSET 0.000000 17.073600 -0.006000
       }
      }
     }
     JOINT RightCollar
     {
      OFFSET -2.921100 9.558500 0.000000
      CHANNELS 3 Yrotation Xrotation Zrotation
      JOINT RightShoulder
      {
       OFFSET -13.519700 0.000000 0.000000
       CHANNELS 3 Yrotation Xrotation Zrotation
       JOINT RightElbow
       {
        OFFSET 0.000000 -29.696600 0.000000
        CHANNELS 3 Yrotation Xrotation Zrotation
        JOINT RightWrist
        {
         OFFSET 0.000000 -24.004700 0.000000
         CHANNELS 3 Yrotation Xrotation Zrotation
         End Site
         {
          OFFSET 0.000000 -17.728500 0.000000
         }
        }
       }
      }
     }
     JOINT LeftCollar
     {
      OFFSET 2.921100 9.558500 0.000000
      CHANNELS 3 Yrotation Xrotation Zrotation
      JOINT LeftShoulder
      {
       OFFSET 13.519700 0.000000 0.000000
       CHANNELS 3 Yrotation Xrotation Zrotation
       JOINT LeftElbow
       {
        OFFSET 0.000000 -29.696600 0.000000
        CHANNELS 3 Yrotation Xrotation Zrotation
        JOINT LeftWrist
        {
         OFFSET 0.000000 -24.004700 0.000000
         CHANNELS 3 Yrotation Xrotation Zrotation
         End Site
         {
          OFFSET 0.000000 -17.728500 0.000000
         }
        }
       }
      }
     }
    }
   }
  }
 }
 JOINT RightHip
 {
  OFFSET -7.771700 -0.012900 -0.001300
  CHANNELS 3 Yrotation Xrotation Zrotation
  JOINT RightKnee
  {
   OFFSET 0.000000 -40.869800 0.001200
   CHANNELS 3 Yrotation Xrotation Zrotation
   JOINT RightAnkle
   {
    OFFSET 0.000000 -39.717900 0.002100
    CHANNELS 3 Yrotation Xrotation Zrotation
    JOINT RightToe
    {
     OFFSET 0.000000 -4.965400 11.033500
     CHANNELS 3 Yrotation Xrotation Zrotation
     End Site
     {
      OFFSET 0.000000 -1.423100 5.872300
     }
    }
   }
  }
 }
 JOINT LeftHip
 {
  OFFSET 7.771700 -0.012900 -0.001300
  CHANNELS 3 Yrotation Xrotation Zrotation
  JOINT LeftKnee
  {
   OFFSET 0.000000 -40.869800 0.001200
   CHANNELS 3 Yrotation Xrotation Zrotation
   JOINT LeftAnkle
   {
    OFFSET 0.000000 -39.717900 0.002100
    CHANNELS 3 Yrotation Xrotation Zrotation
    JOINT LeftToe
    {
     OFFSET 0.000000 -4.965400 11.033500
     CHANNELS 3 Yrotation Xrotation Zrotation
     End Site
     {
      OFFSET 0.000000 -1.423100 5.872300
     }
    }
   }
  }
 }
}
MOTION
Frames: 15
Frame Time: 0.008333
0.000000 85.388000 0.000000 0.000000 -5.767877 0.000000 0.000000 11.653817 0.000000 0.000000 -5.885947 0.000000 0.000000 -0.000000 0.000000 0.000000 -0.000000 0.000000 0.000000 12.528835 0.000000 0.000000 0.711642 0.000000 0.000000 -0.000000 0.000000 0.000000 0.000000 -90.000000 0.000000 -2.309062 0.000000 0.000000 2.309062 0.000000 0.000000 -0.000000 0.000000 0.000000 -0.000000 90.000000 0.000000 -2.309062 0.000000 0.000000 2.309062 0.000000 0.000000 8.520406 0.000000 0.000000 1.905762 0.000000 -0.000000 -4.658285 0.000000 0.000000 -0.000000 0.000000 0.000000 8.520406 0.000000 0.000000 1.905762 0.000000 -0.000000 -4.658285 0.000000 0.000000 -0.000000 0.000000
-70.974927 43.960730 20.254485 178.262447 -51.674320 1.427214 7.104350 16.368482 0.358136 0.651185 1.826530 -0.039116 1.122521 2.998645 -0.031772 5.524114 14.522231 0.406056 3.701844 25.875671 -2.995861 4.817843 2.592488 -4.188749 15.802835 -5.901658 -4.506402 27.889486 -23.453047 -5.350640 -163.224090 -52.630024 -173.438152 1.450453 -7.373511 -45.184443 -26.285277 -2.415527 1.233515 -16.480852 -25.306751 3.218331 171.020534 -42.974241 169.455526 -0.318027 -6.706980 42.046094 -1.918949 -41.105389 3.076957 -141.296881 67.351334 -140.140794 -5.790460 -26.327588 6.878264 0.201765 -0.842060 0.030638 3.170024 -31.025522 -5.527379 175.006487 64.642329 174.990040 3.876305 -36.469724 -1.131550 0.035886 0.692789 0.068573
-70.980969 43.957181 20.268852 178.255772 -51.657401 1.434253 7.116112 16.344859 0.360842 0.700084 1.782757 -0.006184 1.100222 3.028007 -0.048616 5.529597 14.530666 0.413371 3.715973 25.844397 -3.010284 4.818078 2.568894 -4.195213 15.802435 -5.859145 -4.491652 27.872989 -23.480311 -5.377613 -163.247780 -52.600126 -173.409328 1.452856 -7.356057 -45.186035 -26.228949 -2.396189 1.250384 -16.508729 -25.318114 3.196626 170.964333 -42.971191 169.435261 -0.346951 -6.728300 42.030995 -1.919263 -41.129276 3.074706 -141.327954 67.397984 -140.183551 -5.787080 -26.320501 6.878390 0.174267 -0.834192 0.030990 3.214362 -31.047589 -5.532903 175.030416 64.649327 175.025897 3.871477 -36.499225 -1.122579 0.036654 0.682768 0.075375
-70.991373 43.957722 20.281296 178.290551 -51.681986 1.421296 7.118726 16.343584 0.374281 0.684558 1.785953 0.001991 1.119205 3.007039 -0.025814 5.512897 14.565006 0.393785 3.726436 25.819980 -3.026106 4.818897 2.549543 -4.205563 15.794846 -5.814695 -4.478801 27.877369 -23.509805 -5.406391 -163.300975 -52.576790 -173.356475 1.492638 -7.409284 -45.162724 -26.216744 -2.395709 1.243355 -16.503337 -25.311546 3.213645 170.903674 -42.960490 169.466965 -0.382191 -6.733538 41.963409 -1.934549 -41.108869 3.053155 -141.333443 67.410310 -140.197578 -5.777132 -26.320756 6.877875 0.204182 -0.842996 0.042426 3.235039 -31.025132 -5.560218 175.019521 64.656958 175.033937 3.858496 -36.534543 -1.129224 0.047092 0.630434 0.075784
-71.006527 43.958804 20.294110 178.353035 -51.721522 1.399402 7.083140 16.339575 0.408808 0.670190 1.811034 -0.019843 1.113324 3.008507 -0.021299 5.506739 14.568459 0.391788 3.737332 25.803299 -3.051213 4.814360 2.561997 -4.217252 15.806427 -5.761309 -4.472724 27.873817 -23.566357 -5.445826 -163.333621 -52.583975 -173.317472 1.490499 -7.438172 -45.138874 -26.199904 -2.395846 1.208168 -16.498276 -25.314769 3.256449 170.886481 -42.958262 169.446657 -0.386973 -6.734500 41.909464 -1.959234 -41.073896 3.015318 -141.296533 67.426674 -140.183267 -5.764038 -26.294815 6.886926 0.201618 -0.868873 0.048730 3.238497 -30.994968 -5.594383 175.054565 64.667005 175.067503 3.854195 -36.548234 -1.119891 0.048659 0.616983 0.083676
-71.024612 43.954909 20.311263 178.367013 -51.731988 1.416182 7.054397 16.333400 0.410221 0.666116 1.813310 -0.016213 1.106660 3.012222 -0.015350 5.493492 14.568296 0.409388 3.730365 25.766893 -3.048965 4.822720 2.601622 -4.295295 15.831472 -5.705153 -4.487621 27.887397 -23.579893 -5.498098 -163.400189 -52.559853 -173.263517 1.483827 -7.478986 -45.100862 -26.134723 -2.425486 1.160154 -16.525191 -25.316303 3.295738 170.850786 -42.960866 169.470673 -0.380068 -6.734093 41.892823 -1.961696 -41.076845 2.967882 -141.265367 67.447189 -140.187465 -5.697180 -26.263534 6.890587 0.181686 -0.893323 0.041675 3.265128 -30.999896 -5.620949 175.142863 64.676972 175.132144 3.869452 -36.549650 -1.103251 0.044634 0.608293 0.094200
-71.040845 43.953054 20.327124 178.389392 -51.764456 1.399719 7.026803 16.351363 0.434128 0.654185 1.811907 -0.005603 1.116805 3.022854 -0.029586 5.416269 14.580501 0.514487 3.723257 25.756486 -3.167008 4.839262 2.573480 -4.359200 15.918502 -5.652370 -4.579067 27.875765 -23.612786 -5.550303 -163.414798 -52.557191 -173.244331 1.482186 -7.519927 -45.052960 -25.986441 -2.515217 1.053553 -16.566490 -25.319237 3.317992 170.786969 -42.975703 169.513751 -0.362288 -6.721876 41.744701 -1.965956 -41.046218 2.946653 -141.207500 67.469172 -140.143372 -5.651174 -26.237121 6.896762 0.166083 -0.908703 0.040321 3.277707 -30.984120 -5.621196 175.177838 64.679048 175.163205 3.861182 -36.547043 -1.096127 0.048506 0.612031 0.117811
-71.059169 43.955445 20.340135 178.413292 -51.829539 1.380449 6.981282 16.395977 0.460579 0.650697 1.817546 -0.000963 1.134933 3.033536 -0.038625 5.355362 14.605161 0.587765 3.704700 25.739363 -3.244639 4.849487 2.545855 -4.422676 15.980125 -5.623918 -4.632898 27.883655 -23.620322 -5.603066 -163.415891 -52.556948 -173.232357 1.515734 -7.572185 -45.018771 -25.899399 -2.569922 0.967794 -16.576544 -25.334770 3.355117 170.711261 -42.992282 169.553715 -0.341928 -6.719168 41.599859 -1.959188 -40.978059 2.915597 -141.190501 67.490647 -140.123852 -5.617920 -26.210915 6.889922 0.169684 -0.931268 0.051082 3.269946 -30.927040 -5.614121 175.198620 64.687157 175.168378 3.857118 -36.553046 -1.093648 0.037075 0.594016 0.122963
-71.076796 43.958544 20.353371 178.434408 -51.894145 1.346640 6.928834 16.434083 0.501106 0.655829 1.829706 -0.002605 1.130316 3.038681 -0.026064 5.355144 14.626858 0.584443 3.673322 25.734168 -3.244916 4.823620 2.507164 -4.473086 16.004382 -5.614200 -4.647852 27.896134 -23.616649 -5.632594 -163.444484 -52.542551 -173.218716 1.520216 -7.590157 -44.993960 -25.858777 -2.578893 0.940177 -16.587623 -25.313292 3.389379 170.625389 -42.971684 169.619395 -0.341545 -6.726383 41.482196 -1.953751 -40.906187 2.902698 -141.083653 67.515941 -140.027895 -5.539166 -26.146341 6.876684 0.133629 -0.963909 0.066289 3.274447 -30.871180 -5.591191 175.192171 64.693475 175.160931 3.842804 -36.550716 -1.083781 0.042834 0.555932 0.115481
-71.096612 43.963811 20.365979 178.458369 -51.963158 1.314129 6.900315 16.492001 0.527914 0.637138 1.828609 0.009231 1.085378 3.050184 0.014502 5.347467 14.667152 0.600991 3.670210 25.709428 -3.335943 4.816125 2.496433 -4.497706 16.047343 -5.597851 -4.677205 27.925275 -23.617798 -5.691014 -163.474888 -52.515541 -173.200172 1.559930 -7.613481 -44.974245 -25.786729 -2.647185 0.865049 -16.595748 -25.279125 3.376224 170.615870 -42.948585 169.609904 -0.346541 -6.730428 41.423993 -1.949920 -40.828403 2.890521 -140.964461 67.538155 -139.925285 -5.478476 -26.073698 6.870278 0.112526 -0.993946 0.081554 3.293343 -30.808504 -5.578262 175.153235 64.701415 175.133755 3.813220 -36.539777 -1.062481 0.040132 0.544251 0.121503
-71.117150 43.972633 20.377040 178.563842 -52.043856 1.215823 6.822458 16.560196 0.556627 0.621485 1.829458 0.017502 1.081878 3.062188 0.021418 5.310846 14.705360 0.649303 3.631237 25.693432 -3.374733 4.804162 2.473171 -4.557128 16.086925 -5.589875 -4.715489 27.954385 -23.619033 -5.719846 -163.509291 -52.488690 -173.197134 1.616518 -7.614338 -44.970341 -25.735039 -2.682264 0.815799 -16.583453 -25.296763 3.358516 170.480761 -42.978158 169.679875 -0.394612 -6.741318 41.310611 -1.976294 -40.726726 2.866442 -140.870824 67.566268 -139.826323 -5.449423 -26.100514 6.886628 0.084992 -0.924449 0.077271 3.267126 -30.733908 -5.563901 175.096265 64.710677 175.094738 3.775633 -36.507491 -1.025601 0.044453 0.501570 0.103705
-71.138059 43.980652 20.389933 178.611419 -52.099297 1.162875 6.743953 16.587692 0.582362 0.644353 1.849124 0.011375 1.085078 3.072657 0.023964 5.284928 14.737958 0.684669 3.584340 25.685442 -3.379820 4.728832 2.451668 -4.548921 16.095745 -5.576759 -4.728895 27.918939 -23.623617 -5.680793 -163.511418 -52.459853 -173.143628 1.677172 -7.578599 -44.992353 -25.763675 -2.632100 0.808600 -16.512829 -25.380992 3.339949 170.316976 -43.012406 169.758710 -0.498677 -6.760048 41.265887 -1.947263 -40.640715 2.833070 -140.784293 67.600757 -139.720861 -5.428281 -26.091136 6.905531 0.034898 -0.851472 0.050718 3.276850 -30.684683 -5.557561 175.045759 64.720031 175.067008 3.759726 -36.491454 -1.025227 0.067898 0.469909 0.093138
-71.155610 43.992640 20.400673 178.677151 -52.168096 1.077515 6.707153 16.647791 0.624958 0.627197 1.847189 0.018765 1.100737 3.079852 0.018857 5.269735 14.754925 0.704315 3.538809 25.690471 -3.357923 4.670227 2.437199 -4.532189 16.060933 -5.546157 -4.689898 27.933208 -23.632857 -5.707917 -163.528315 -52.400771 -173.217766 1.704728 -7.507271 -44.938376 -25.788343 -2.609430 0.808663 -16.513076 -25.342420 3.275400 170.285970 -42.985353 169.714906 -0.596395 -6.774555 41.256883 -1.969009 -40.551732 2.844797 -140.709600 67.625976 -139.646798 -5.409651 -26.030744 6.912007 0.009674 -0.850629 0.050722 3.298596 -30.626662 -5.521357 175.016214 64.723280 175.075579 3.744723 -36.454664 -1.022120 0.078322 0.428729 0.105687
-71.177477 44.005854 20.411042 178.729570 -52.231490 1.033505 6.654823 16.698015 0.635077 0.627511 1.853688 0.019749 1.095757 3.092956 0.027652 5.239170 14.788194 0.735034 3.502510 25.676574 -3.372230 4.626093 2.427263 -4.520428 16.062441 -5.532439 -4.701039 27.913902 -23.642485 -5.712436 -163.518102 -52.379592 -173.220148 1.746564 -7.463587 -44.968470 -25.792187 -2.625526 0.786493 -16.516474 -25.331497 3.250006 170.228788 -42.983206 169.712592 -0.657360 -6.763177 41.252705 -1.986954 -40.481408 2.834306 -140.677614 67.639263 -139.623600 -5.433186 -25.965434 6.908411 0.020910 -0.862310 0.063944 3.290680 -30.564676 -5.492884 174.957660 64.741936 174.997667 3.730729 -36.432377 -0.999963 0.063651 0.414247 0.100690
-71.192490 44.024359 20.417360 178.824349 -52.327423 0.922918 6.577464 16.767755 0.680017 0.640229 1.868892 0.020528 1.068801 3.105704 0.043747 5.226180 14.817493 0.751132 3.466715 25.665893 -3.377585 4.579305 2.418786 -4.501854 16.055611 -5.513626 -4.703434 27.883981 -23.657670 -5.715714 -163.481122 -52.369952 -173.213700 1.786313 -7.426361 -45.011149 -25.803843 -2.643472 0.765316 -16.534133 -25.332647 3.257849 170.170244 -42.993890 169.736007 -0.605812 -6.702327 41.256791 -2.013424 -40.354418 2.842713 -140.632156 67.664233 -139.549756 -5.457176 -25.932149 6.917757 0.034625 -0.855751 0.071033 3.245242 -30.471912 -5.426556 174.930491 64.754978 174.967949 3.731928 -36.408122 -0.986908 0.065162 0.392898 0.096255
